<?xml version="1.0" encoding="UTF-8" standalone="no"?>
<svg
   xmlns:dc="http://purl.org/dc/elements/1.1/"
   xmlns:cc="http://creativecommons.org/ns#"
   xmlns:rdf="http://www.w3.org/1999/02/22-rdf-syntax-ns#"
   xmlns:svg="http://www.w3.org/2000/svg"
   xmlns="http://www.w3.org/2000/svg"
   xmlns:sodipodi="http://sodipodi.sourceforge.net/DTD/sodipodi-0.dtd"
   xmlns:inkscape="http://www.inkscape.org/namespaces/inkscape"
   version="1.1"
   id="Capa_1"
   x="0px"
   y="0px"
   width="78"
   height="56"
   viewBox="5 -10 78 75.6"
   xml:space="preserve"
   inkscape:version="0.48.5 r10040"
   sodipodi:docname="points-4-high.svg"><metadata
     id="metadata13"><rdf:RDF><cc:Work
         rdf:about=""><dc:format>image/svg+xml</dc:format><dc:type
           rdf:resource="http://purl.org/dc/dcmitype/StillImage" /></cc:Work></rdf:RDF></metadata><defs
     id="defs11"><filter
       inkscape:label="Simple blur"
       inkscape:menu="ABCs"
       inkscape:menu-tooltip="Simple Gaussian blur, same as the blur slider in Fill and Stroke dialog"
       color-interpolation-filters="sRGB"
       id="filter3296"><feGaussianBlur
         stdDeviation="3"
         id="feGaussianBlur3298" /></filter></defs><sodipodi:namedview
     pagecolor="#ffffff"
     bordercolor="#666666"
     borderopacity="1"
     objecttolerance="10"
     gridtolerance="10"
     guidetolerance="10"
     inkscape:pageopacity="0"
     inkscape:pageshadow="2"
     inkscape:window-width="1366"
     inkscape:window-height="744"
     id="namedview9"
     showgrid="false"
     fit-margin-top="0"
     fit-margin-left="0"
     fit-margin-right="0"
     fit-margin-bottom="0"
     inkscape:zoom="5.272498"
     inkscape:cx="50.935536"
     inkscape:cy="17.231243"
     inkscape:window-x="0"
     inkscape:window-y="24"
     inkscape:window-maximized="1"
     inkscape:current-layer="Capa_1" /><path
     inkscape:connector-curvature="0"
     d="m 61.006303,57.902649 0,0 c 1.009999,0 1.96,-0.209999 2.79,-0.619999 1.25,-0.6 2.17,-1.609999 2.73,-2.72 0.569999,-1.11 0.820001,-2.330001 0.820001,-3.530001 0,-1.08 -0.230001,-2.16 -0.650001,-3.17 l 9.97,-0.01 0.04,0 c 0.98,0 1.91,-0.190001 2.73,-0.55 1.229999,-0.549999 2.169999,-1.5 2.739999,-2.559999 0.58,-1.07 0.83,-2.24 0.83,-3.4 0,-1.18 -0.28,-2.35 -0.78,-3.439999 0.1,0 0.21,0 0.28,0 1.03,0 2,-0.220001 2.84,-0.630001 1.27,-0.62 2.21,-1.64 2.8,-2.760001 0.59,-1.13 0.86,-2.369999 0.86,-3.61 0,-1.639998 -0.48,-3.319999 -1.56,-4.689999 -0.54,-0.679999 -1.25,-1.269999 -2.09,-1.68 -0.73,-0.36 -1.57,-0.56 -2.44,-0.61 0.4,-0.970001 0.6,-1.99 0.6,-3.02 0,-1.64 -0.48,-3.319999 -1.56,-4.689999 -0.54,-0.680001 -1.25,-1.270001 -2.09,-1.680001 -0.86,-0.409999 -1.83,-0.629999 -2.86,-0.629999 -2.200001,0 -19.22,0 -33,0 l 0,-7.2999995 -20.07,-8.9199999 -24.930002,13.0099994 0,1.209999 c 0,0 0,1.880001 0,4.750001 0,8.629998 0,26.249999 0,29.249998 0,1.170001 0.15000995,2.240001 0.50999995,3.210001 0.27,0.73 0.66,1.4 1.16,1.96 0.75000005,0.85 1.69000005,1.44 2.68001005,1.86 0.99999,0.42 2.07999,0.699999 3.25999,0.94 v 0 c 1.6500098,0.33 4.16,0.73 7.120009,1.159999 4.429993,0.640002 9.849993,1.340001 14.669993,1.880001 2.41,0.27 4.669999,0.51 6.590001,0.69 1.919999,0.17 3.489999,0.29 4.579999,0.31 l 0,0 c 0.06001,0 0.09999,0 0.2,0 0.63,0 2.83,0 5.61,0 6.34,-0.01 15.62,-0.01 15.62,-0.01 z m -19.62,-4 c -0.51,0 -0.93,0 -1.23,0 -0.15,0 -0.27,0 -0.349999,0 l -0.09999,0 -0.03,0 v 0 c -1.21,-0.03 -3.51,-0.209999 -6.29,-0.49 -4.190002,-0.419999 -9.530001,-1.059999 -14.410001,-1.709999 -4.870004,-0.65 -9.3000032,-1.310001 -11.5700032,-1.77 v 0 c -0.9199998,-0.18 -1.6799998,-0.38 -2.2699998,-0.61 -0.44,-0.17 -0.78,-0.349999 -1.03,-0.53 -0.38,-0.28 -0.58,-0.53 -0.77,-0.930001 -0.19,-0.409999 -0.33,-1.03 -0.33,-1.96 0,-3.519999 0,-27.149999 0,-32.789998 l 21.070003,-10.9899991 15.93,7.0799996 0,4.6999995 c -7.95,0 -14.000001,0 -14.000001,0 l -1.999999,0 0,4 1.999999,0 c 0,0 47.22,0 51.000001,0 0.47,0 0.81,0.09 1.09,0.229999 0.41999,0.2 0.73999,0.530001 0.99999,1.020001 0.25,0.479999 0.41,1.109999 0.4,1.749999 0,0.86 -0.27,1.679999 -0.69,2.19 -0.21,0.26 -0.44,0.450001 -0.72,0.58 -0.27,0.140001 -0.61,0.23 -1.08,0.23 -10.59,0 -32.169999,0 -34,0 l 0,4 c 0,0 30,0 34,0 2.76,0 4.78,0 5.5,0 0.47,0 0.81,0.09 1.09,0.230001 0.42,0.199999 0.74,0.529999 1,1.019999 0.26,0.48 0.41,1.11 0.41,1.749999 0,0.86 -0.27,1.680001 -0.69,2.190001 -0.21,0.26 -0.44,0.45 -0.72,0.58 -0.28,0.14 -0.62,0.23 -1.09,0.23 -0.84,0 -3.18,0 -6.34,0 -4,0 -35.480001,0 -35.480001,0 l 0,4.000001 c 0,0 23.59,0 35.480001,0 0.48,0 0.84,0.09999 1.16,0.259999 0.48,0.24 0.89,0.66 1.2,1.24 0.31,0.57 0.48,1.28 0.48,1.94 0,0.779999 -0.24,1.45 -0.57,1.84 -0.17,0.2 -0.36,0.35 -0.62,0.47 -0.26,0.12 -0.61,0.2 -1.1,0.2 l -0.03,0 -0.01,0 -38.06,0.05 0,4 22.39,0 c 0.41,0 0.689999,0.08 0.95,0.22 0.379999,0.2 0.72,0.55 0.98,1.070001 0.260001,0.519999 0.42,1.189999 0.410001,1.849999 0,0.850001 -0.260001,1.65 -0.64,2.11 -0.190001,0.240001 -0.400001,0.410001 -0.660001,0.54 -0.250001,0.120002 -0.58,0.209999 -1.04,0.209999 v 0 c -0.01,0 -2.32,0 -5.43,0 -3.11,0 -7.02,0 -10.18,0 -1.589999,0 -2.989999,0 -4.01,0 z"
     id="path3"
     style="fill:#ff0000;filter:url(#filter3296)"
     transform="matrix(0.99987929,0,0,0.99991895,-9.8904769e-4,0.00527706)" /><path
     inkscape:connector-curvature="0"
     d="m 60.997791,57.90175 0,0 c 1.009868,0 1.959745,-0.209981 2.789637,-0.619947 1.249837,-0.599948 2.169718,-1.609862 2.729645,-2.719767 0.569926,-1.109905 0.819893,-2.329801 0.819893,-3.529699 0,-1.079908 -0.22997,-2.159815 -0.649915,-3.169729 l 9.968703,-0.01 0.04,0 c 0.979873,0 1.909752,-0.189984 2.729645,-0.549952 1.22984,-0.549953 2.169718,-1.499872 2.739644,-2.559781 0.579925,-1.069908 0.829892,-2.239809 0.829892,-3.399709 0,-1.179899 -0.279963,-2.3498 -0.779898,-3.439706 0.09999,0 0.209972,0 0.279963,0 1.029866,0 1.99974,-0.219981 2.839631,-0.629946 1.269835,-0.619947 2.209713,-1.63986 2.799636,-2.759764 0.589923,-1.129904 0.859888,-2.369797 0.859888,-3.609692 0,-1.639859 -0.479938,-3.319716 -1.559797,-4.689599 -0.53993,-0.67994 -1.249838,-1.269891 -2.089728,-1.679856 -0.729906,-0.35997 -1.569796,-0.559953 -2.439683,-0.609949 0.399948,-0.969917 0.599922,-1.989829 0.599922,-3.019741 0,-1.63986 -0.479938,-3.319715 -1.559797,-4.689597 -0.53993,-0.679943 -1.249838,-1.269893 -2.089729,-1.679858 -0.859888,-0.409964 -1.829762,-0.629945 -2.859628,-0.629945 -2.199714,0 -19.217501,0 -32.995709,0 l 0,-7.2993755 L 23.932617,-2.3131 -0.994145,10.695787 l 0,1.209896 c 0,0 0,1.87984 0,4.749595 0,8.62926 0,26.247754 0,29.247498 0,1.1699 0.1499905,2.239809 0.50993369,3.209725 0.26996489,0.729939 0.65991418,1.399881 1.15984917,1.959833 0.74990244,0.849928 1.68978024,1.439878 2.67966154,1.859842 0.99986,0.419964 2.0797196,0.699939 3.2595661,0.939918 v 0 c 1.6497955,0.329973 4.1594595,0.729939 7.1190835,1.159901 4.429417,0.639946 9.848712,1.339888 14.668086,1.87984 2.409687,0.269977 4.669392,0.509957 6.589143,0.68994 1.91975,0.169986 3.489546,0.289977 4.579404,0.309975 l 0,0 c 0.05999,0 0.09999,0 0.199974,0 0.629918,0 2.829632,0 5.609271,0 6.339175,-0.01 15.617969,-0.01 15.617969,-0.01 z M 41.380342,53.902092 c -0.509934,0 -0.929879,0 -1.22984,0 -0.149981,0 -0.269965,0 -0.349955,0 l -0.09999,0 -0.03,0 v 0 c -1.209843,-0.03 -3.509544,-0.209981 -6.289182,-0.489958 C 29.19192,52.992171 23.852615,52.352224 18.97325,51.702281 14.103886,51.052335 9.6744627,50.392392 7.4047578,49.932433 v 0 C 6.4848784,49.752448 5.7249773,49.552464 5.135054,49.322484 4.6951112,49.152499 4.3551554,48.972514 4.1051879,48.792529 3.7252373,48.512555 3.5252633,48.262576 3.335288,47.862608 3.1453127,47.452644 3.0053309,46.832696 3.0053309,45.902776 c 0,-3.519699 0,-27.147679 0,-32.787194 L 24.072594,2.1265205 l 15.927927,7.0793948 0,4.6995977 c -7.948966,0 -13.998179,0 -13.998179,0 l -1.999738,0 0,3.999658 1.999738,0 c 0,0 47.21386,0 50.993368,0 0.469939,0 0.809895,0.08999 1.089859,0.229978 0.419935,0.199983 0.739893,0.529957 0.99986,1.019915 0.249967,0.479957 0.409946,1.109904 0.399948,1.74985 0,0.859926 -0.269965,1.679855 -0.689911,2.189811 -0.209972,0.259979 -0.439943,0.449963 -0.719906,0.579952 -0.269965,0.139988 -0.609921,0.229979 -1.07986,0.229979 -10.588623,0 -32.165817,0 -33.995579,0 l 0,3.999658 c 0,0 29.996099,0 33.995579,0 2.759641,0 4.779379,0 5.499285,0 0.469939,0 0.809895,0.08999 1.089858,0.229982 0.419946,0.199983 0.739904,0.529953 0.99987,1.019911 0.259967,0.47996 0.409947,1.109906 0.409947,1.749851 0,0.859926 -0.269965,1.679857 -0.68991,2.189814 -0.209973,0.259976 -0.439943,0.449961 -0.719907,0.579949 -0.279963,0.139989 -0.619919,0.229981 -1.089858,0.229981 -0.839891,0 -3.179586,0 -6.339176,0 -3.999479,0 -35.475386,0 -35.475386,0 l 0,3.999658 c 0,0 23.586932,0 35.475386,0 0.479938,0 0.839891,0.09998 1.15985,0.259977 0.479937,0.239981 0.889884,0.659945 1.199844,1.239895 0.309959,0.569952 0.479937,1.279891 0.479937,1.939834 0,0.779933 -0.239969,1.449876 -0.569926,1.839843 -0.169978,0.199983 -0.359953,0.34997 -0.619919,0.46996 -0.259966,0.119991 -0.609921,0.199983 -1.099857,0.199983 l -0.03,0 -0.01,0 -38.055051,0.05 0,3.999658 22.387089,0 c 0.409946,0 0.68991,0.07999 0.949876,0.219981 0.379951,0.199983 0.719906,0.549954 0.979873,1.069908 0.259966,0.519956 0.419945,1.189899 0.409946,1.849842 0,0.849928 -0.259966,1.649858 -0.639916,2.10982 -0.189976,0.23998 -0.399948,0.409965 -0.659915,0.539954 -0.249967,0.11999 -0.579924,0.209981 -1.039864,0.209981 v 0 c -0.01,0 -2.319699,0 -5.429294,0 -3.109596,0 -7.019088,0 -10.178677,0 -1.589793,0 -2.989611,0 -4.009478,0 z"
     id="path3-0" /></svg>