<?xml version="1.0" encoding="UTF-8" standalone="no"?>
<svg
   xmlns:dc="http://purl.org/dc/elements/1.1/"
   xmlns:cc="http://creativecommons.org/ns#"
   xmlns:rdf="http://www.w3.org/1999/02/22-rdf-syntax-ns#"
   xmlns:svg="http://www.w3.org/2000/svg"
   xmlns="http://www.w3.org/2000/svg"
   xmlns:sodipodi="http://sodipodi.sourceforge.net/DTD/sodipodi-0.dtd"
   xmlns:inkscape="http://www.inkscape.org/namespaces/inkscape"
   version="1.1"
   id="Capa_1"
   x="0px"
   y="0px"
   width="78"
   height="56"
   viewBox="5 -10 78 75.6"
   xml:space="preserve"
   inkscape:version="0.48.5 r10040"
   sodipodi:docname="points-0.svg"><metadata
     id="metadata13"><rdf:RDF><cc:Work
         rdf:about=""><dc:format>image/svg+xml</dc:format><dc:type
           rdf:resource="http://purl.org/dc/dcmitype/StillImage" /></cc:Work></rdf:RDF></metadata><defs
     id="defs11"><filter
       inkscape:label="Simple blur"
       inkscape:menu="ABCs"
       inkscape:menu-tooltip="Simple Gaussian blur, same as the blur slider in Fill and Stroke dialog"
       color-interpolation-filters="sRGB"
       id="filter3318"><feGaussianBlur
         stdDeviation="3"
         id="feGaussianBlur3320" /></filter></defs><sodipodi:namedview
     pagecolor="#ffffff"
     bordercolor="#666666"
     borderopacity="1"
     objecttolerance="10"
     gridtolerance="10"
     guidetolerance="10"
     inkscape:pageopacity="0"
     inkscape:pageshadow="2"
     inkscape:window-width="1366"
     inkscape:window-height="744"
     id="namedview9"
     showgrid="true"
     fit-margin-top="0"
     fit-margin-left="0"
     fit-margin-right="0"
     fit-margin-bottom="0"
     inkscape:zoom="5.8088535"
     inkscape:cx="64.633278"
     inkscape:cy="12.736421"
     inkscape:window-x="0"
     inkscape:window-y="24"
     inkscape:window-maximized="1"
     inkscape:current-layer="Capa_1"
     inkscape:snap-grids="true"
     inkscape:snap-to-guides="true"><inkscape:grid
       type="xygrid"
       id="grid2982"
       empspacing="5"
       visible="true"
       enabled="true"
       snapvisiblegridlinesonly="true"
       originx="3.061728px"
       originy="-4.1333318px" /></sodipodi:namedview><path
     inkscape:connector-curvature="0"
     d="m 40.09585,57.901763 c 0.04,0 0.08,0 0.18,-0.02001 0.909997,-0.03 1.769997,-0.22998 2.529997,-0.599951 1.25,-0.599948 2.170001,-1.609861 2.729999,-2.719765 0.570001,-1.109906 0.820001,-2.319802 0.820001,-3.529699 0,-1.139903 -0.24,-2.279805 -0.720001,-3.339715 0.420002,-0.09998 0.830001,-0.23998 1.2,-0.429963 1.270001,-0.609948 2.200001,-1.629861 2.780001,-2.749768 0.58,-1.1199 0.85,-2.359796 0.85,-3.579691 0,-1.109905 -0.240001,-2.229811 -0.71,-3.26972 0.38,-0.09998 0.76,-0.229982 1.1,-0.399967 1.27,-0.619956 2.21,-1.639871 2.8,-2.759774 0.59,-1.129904 0.86,-2.369799 0.86,-3.609692 0,-1.019913 -0.0476,-2.240199 -0.58,-2.999743 -1.285721,-1.859836 -1.80573,-2.116561 -0.98,-3.389706 0.59,-1.129902 0.86,-2.369798 0.86,-3.60969 0,-1.639862 -0.48,-3.31972 -1.56,-4.689602 -0.54,-0.679943 -1.25,-1.269892 -2.09,-1.679856 -0.86,-0.399967 -1.830001,-0.619948 -2.859999,-0.619948 -2.200001,0 10.479998,0 -3.300001,0 l 0,-7.2993734 L 23.93585,-2.3131 l -24.93,13.008887 0,1.209896 c 0,0 0,1.87984 0,4.749594 0,8.629262 0,26.247759 0,29.247501 0,1.169902 0.15,2.239809 0.51,3.209726 0.27,0.729938 0.66,1.39988 1.16,1.959833 0.75,0.849927 1.69,1.439876 2.68,1.859841 1,0.419964 2.08,0.699938 3.26,0.929919 l 0,0 c 1.65,0.329973 4.16,0.729937 7.12,1.159902 4.430001,0.639945 9.849999,1.329886 14.67,1.879838 2.41,0.269978 4.67,0.509956 6.59,0.689941 1.919999,0.169986 3.489999,0.289975 4.58,0.309973 l 0,0 c 0.17,0 0.28,0.01 0.359999,0.01 z m -0.15,-3.999658 c -0.09999,0 -0.19,0 -0.280001,0 l 0,0 C 34.34585,53.792113 28.97585,52.972184 23.69585,52.312241 c -5.44,-0.669943 -10.92,-1.299889 -16.3,-2.369799 l 0,0 c -1.11,-0.219981 -2.36,-0.46996 -3.3,-1.139901 -0.93,-0.679943 -1.09,-1.819845 -1.09,-2.899752 0,-0.859927 0,-1.709853 0,-2.56978 0,-3.249723 0,-6.499447 0,-9.739169 0,-6.729426 0,-13.448851 0,-20.178274 0,-0.09998 0,-0.199984 0,-0.299976 l 21.07,-10.9890595 15.93,7.0793941 0,4.6995994 c -5.33,0 2.199997,-0.02001 -7.249999,-0.02001 l 0,4.049654 c 9.209996,0 9.679996,-0.03 18.889996,-0.03 6.25,0 12.5,0 18.75,0 1.86,0 -25.990001,0 -24.13,0 0.79,0 1.68,-0.08999 2.37,0.369968 2.07,1.379883 1.38,5.61952 -1.329999,5.629519 -11.329998,0 7.029999,0 -4.300002,0 l 0,3.999658 c 1.540001,0 3.080001,0 4.610001,0 1.18,0 2.120001,0.329971 2.6,1.499872 0.449999,1.089907 0.399999,2.489787 -0.25,3.479703 -0.71,1.099905 -1.88,1.019912 -3.04,1.019912 -0.99,0 -1.99,0 -2.98,0 -1.09,0 -2.17,0 -3.259997,0 l 0,3.999659 c 0.519997,0 1.049997,0 1.579997,0 1.059999,0 2.390001,-0.239979 3.25,0.529953 1.469999,1.329887 1.34,4.909581 -0.890001,5.399538 -1.069999,0.239983 -2.319999,0.06999 -3.399999,0.06999 -0.869997,0 -1.729996,0 -2.599997,0 l 0,3.999659 c 1.34,0 2.599997,-0.119992 3.309997,1.289889 0.87,1.719852 0.44,4.699599 -1.929998,4.709598"
     id="path3-3"
     sodipodi:nodetypes="ccccsccsscccsccsccscccccsscccccccccccccccccccssssccccccsssscccsccssccsccscccc" /></svg>