<?xml version="1.0" encoding="UTF-8" standalone="no"?>
<svg
   xmlns:dc="http://purl.org/dc/elements/1.1/"
   xmlns:cc="http://creativecommons.org/ns#"
   xmlns:rdf="http://www.w3.org/1999/02/22-rdf-syntax-ns#"
   xmlns:svg="http://www.w3.org/2000/svg"
   xmlns="http://www.w3.org/2000/svg"
   xmlns:sodipodi="http://sodipodi.sourceforge.net/DTD/sodipodi-0.dtd"
   xmlns:inkscape="http://www.inkscape.org/namespaces/inkscape"
   version="1.1"
   id="Capa_1"
   x="0px"
   y="0px"
   width="78"
   height="56"
   viewBox="5 -10 78.000001 75.6"
   xml:space="preserve"
   inkscape:version="0.48.5 r10040"
   sodipodi:docname="points-3-high.svg"><metadata
     id="metadata13"><rdf:RDF><cc:Work
         rdf:about=""><dc:format>image/svg+xml</dc:format><dc:type
           rdf:resource="http://purl.org/dc/dcmitype/StillImage" /></cc:Work></rdf:RDF></metadata><defs
     id="defs11"><filter
       inkscape:label="Simple blur"
       inkscape:menu="ABCs"
       inkscape:menu-tooltip="Simple Gaussian blur, same as the blur slider in Fill and Stroke dialog"
       color-interpolation-filters="sRGB"
       id="filter3256"><feGaussianBlur
         stdDeviation="3"
         id="feGaussianBlur3258" /></filter></defs><sodipodi:namedview
     pagecolor="#ffffff"
     bordercolor="#666666"
     borderopacity="1"
     objecttolerance="10"
     gridtolerance="10"
     guidetolerance="10"
     inkscape:pageopacity="0"
     inkscape:pageshadow="2"
     inkscape:window-width="1366"
     inkscape:window-height="744"
     id="namedview9"
     showgrid="false"
     fit-margin-top="0"
     fit-margin-left="0"
     fit-margin-right="0"
     fit-margin-bottom="0"
     inkscape:zoom="3.7282191"
     inkscape:cx="83.832375"
     inkscape:cy="-14.186042"
     inkscape:window-x="0"
     inkscape:window-y="24"
     inkscape:window-maximized="1"
     inkscape:current-layer="Capa_1" /><path
     inkscape:connector-curvature="0"
     d="m 40.098115,57.91265 c 2.23,-0.189999 4.160001,-1.059999 5.3,-3.079999 1.190001,-2.100001 1.23,-4.73 0.310001,-6.929999 9.759999,-0.01 19.51,-0.03 29.269999,-0.04 0.920001,0 1.890001,0.05999 2.810001,-0.08 4.67,-0.689998 6.26,-5.959999 4.43,-9.869998 3.84,0 6.62,-2.830001 6.78,-6.660001 0.149999,-3.67 -2.27,-7.1 -6.09,-7.32 1.82,-4.399999 -0.77,-10.03 -5.9,-10.019999 -2.18,0 -4.37,0 -6.55,0 -8.82,0 -17.63,0 -26.45,0 l 0,-7.3000027 -20.07,-8.9199994 -24.93000076,13.0099991 c 0,7.700001 0,15.399999 0,23.09 0,3.530001 0,7.05 0,10.58 0,1.6 -0.06,3.22 0.51,4.75 1.02999996,2.780001 3.69999996,3.99 6.39999996,4.6 0.23,0.05 0.46,0.09999 0.69,0.15 5.2699998,1.04 10.6399998,1.67 15.9699998,2.34 5.62,0.7 11.33,1.57 16.990001,1.699999 l 0,0 c 0.189999,0 0.529999,0 0.529999,0 z m -0.15,-4 c -0.09,0 -0.19,0 -0.279999,0 v 0 c -5.32,-0.109998 -10.690001,-0.929998 -15.970001,-1.589999 -5.44,-0.670001 -10.920001,-1.3 -16.2999993,-2.37 v 0 c -1.1100005,-0.22 -2.3600005,-0.47 -3.3000005,-1.14 -0.93,-0.68 -1.09,-1.820001 -1.09,-2.900001 0,-0.86 0,-1.709999 0,-2.569999 0,-3.250001 0,-6.5 0,-9.74 0,-6.73 0,-13.45 0,-20.179999 0,-0.09999 0,-0.2 0,-0.3 L 24.078116,2.1326519 l 15.93,7.0799995 0,4.7000006 c -5.330001,0 -10.67,0 -16,0 l 0,4 c 9.21,0 18.43,0 27.64,0 6.249999,0 12.499999,0 18.75,0 1.859999,0 3.71,0 5.57,0 0.79,0 1.68,-0.09 2.37,0.37 2.07,1.379999 1.38,5.619999 -1.33,5.629999 -11.330001,0 -22.670001,0 -34,0 l 0,4 c 10.589999,0 21.189999,0 31.78,0 0.74,0 1.48,0 2.22,0 1.3,0 2.6,0 3.9,0 0.85,0 1.91,-0.15 2.69,0.230001 2.19,1.069999 1.83,5.479999 -0.76,5.749999 -2.18,0.23 -4.49,0.02001 -6.67,0.02001 -5.1,0 -10.21,0 -15.310001,0 -6.72,0 -13.44,0 -20.17,0 l 0,4 c 5.410001,0 10.82,0 16.23,0 4.370001,0 8.750001,0 13.120001,0 1.91,0 3.82,0 5.72,0 1.22,0 2.17,0.38 2.77,1.5 0.58,1.08 0.76,2.78 -0.1,3.78 -0.81,0.949999 -2.74,0.67 -3.89,0.679999 -2.330001,0 -4.660001,0.01 -6.98,0.01 -6.38,0.01 -12.760001,0.01999 -19.140001,0.01999 -3.269999,0 -6.539999,0.01 -9.809999,0.01 l 0,4 c 1.6,0 2.97,0.01 3.529999,1.849999 0.330001,1.08 0.29,2.490001 -0.449999,3.400001 -0.43,0.579999 -1.050001,0.68 -1.740001,0.749999 z m -0.05999,0.01"
     id="path3"
     style="fill:#ff0000;filter:url(#filter3256)"
     transform="matrix(0.99989453,0,0,1.000053,-8.6419273e-4,-0.00344839)" /><path
     inkscape:connector-curvature="0"
     d="m 40.093046,57.911749 c 2.22975,-0.190014 4.159543,-1.060082 5.299404,-3.080246 1.189876,-2.100171 1.229862,-4.730382 0.309965,-6.930557 9.758903,-0.01 19.507816,-0.03 29.266708,-0.04 0.919897,0 1.889798,0.06 2.809684,-0.08001 4.669475,-0.690052 6.259296,-5.960479 4.429512,-9.870791 3.839568,0 6.619246,-2.830229 6.779238,-6.660539 0.149973,-3.670299 -2.269755,-7.100576 -6.089315,-7.320594 1.819795,-4.400353 -0.769924,-10.030808 -5.899347,-10.020806 -2.179745,0 -4.369508,0 -6.549263,0 -8.819008,0 -17.628017,0 -26.447015,0 l 0,-7.300592 L 23.934861,-2.3131 -0.99233496,10.697947 c 0,7.700621 0,15.40124 0,23.091861 0,3.530286 0,7.050569 0,10.580852 0,1.600129 -0.0599932,3.22026 0.50994264,4.750384 1.02988415,2.780225 3.69958382,3.99032 6.39928012,4.600369 0.2299742,0.05 0.4599483,0.100008 0.6899224,0.150012 5.2694068,1.040085 10.6388038,1.670135 15.9682048,2.34019 5.61937,0.700055 11.328728,1.570125 16.988101,1.700135 l 0,0 c 0.189969,0 0.52993,0 0.52993,0 z m -0.149983,-4.000322 c -0.08999,0 -0.189978,0 -0.279958,0 v 0 C 34.343693,53.801421 28.974297,52.981356 23.694889,52.321301 18.255501,51.651246 12.776115,51.021196 7.3967314,49.951109 v 0 C 6.2868462,49.731093 5.0369868,49.481072 4.0970925,48.811018 3.1671971,48.130963 3.0072151,46.990869 3.0072151,45.910782 c 0,-0.860068 0,-1.710136 0,-2.570205 0,-3.250263 0,-6.500524 0,-9.740785 0,-6.730543 0,-13.451083 0,-20.181626 0,-0.1 0,-0.200016 0,-0.300024 L 24.074857,2.1272569 l 15.92821,7.0805695 0,4.7003796 c -5.329411,0 -10.66881,0 -15.998203,0 l 0,4.000321 c 9.208956,0 18.427929,0 27.636883,0 6.249297,0 12.498594,0 18.747902,0 1.85978,0 3.709572,0 5.569373,0 0.789901,0 1.679801,-0.09001 2.369734,0.370032 2.069767,1.38011 1.379844,5.620451 -1.329861,5.630452 -11.328726,0 -22.66745,0 -33.996176,0 l 0,4.000324 c 10.588809,0 21.187617,0 31.776436,0 0.739917,0 1.479823,0 2.21974,0 1.299854,0 2.599708,0 3.899561,0 0.849915,0 1.909796,-0.150013 2.689708,0.230019 2.189754,1.070086 1.829784,5.48044 -0.759915,5.750462 -2.179754,0.230019 -4.489495,0.02001 -6.669259,0.02001 -5.099427,0 -10.208852,0 -15.308279,0 -6.719244,0 -13.438488,0 -20.167731,0 l 0,4.000323 c 5.409402,0 10.818783,0 16.228175,0 4.369518,0 8.749016,0 13.118524,0 1.909785,0 3.81958,0 5.719357,0 1.219862,0 2.169766,0.380031 2.769688,1.50012 0.579945,1.080087 0.759915,2.780225 -0.09999,3.780305 -0.809909,0.950076 -2.739681,0.670055 -3.889562,0.680054 -2.329738,0 -4.659476,0.01 -6.979215,0.01 -6.379282,0.01 -12.758565,0.01999 -19.137847,0.01999 -3.269633,0 -6.539265,0.01 -9.808897,0.01 l 0,4.000322 c 1.59982,0 2.969666,0.01 3.529603,1.850148 0.329963,1.080087 0.289967,2.490201 -0.449949,3.400276 -0.429952,0.580044 -1.049882,0.680054 -1.739805,0.750058 z m -0.05999,0.01"
     id="path3-9" /></svg>