<?xml version="1.0" encoding="UTF-8" standalone="no"?>
<svg
   xmlns:dc="http://purl.org/dc/elements/1.1/"
   xmlns:cc="http://creativecommons.org/ns#"
   xmlns:rdf="http://www.w3.org/1999/02/22-rdf-syntax-ns#"
   xmlns:svg="http://www.w3.org/2000/svg"
   xmlns="http://www.w3.org/2000/svg"
   xmlns:sodipodi="http://sodipodi.sourceforge.net/DTD/sodipodi-0.dtd"
   xmlns:inkscape="http://www.inkscape.org/namespaces/inkscape"
   version="1.1"
   id="Capa_1"
   x="0px"
   y="0px"
   width="78"
   height="56"
   viewBox="5 -10 78.000001 75.6"
   xml:space="preserve"
   inkscape:version="0.48.5 r10040"
   sodipodi:docname="points-1-high.svg"><metadata
     id="metadata13"><rdf:RDF><cc:Work
         rdf:about=""><dc:format>image/svg+xml</dc:format><dc:type
           rdf:resource="http://purl.org/dc/dcmitype/StillImage" /><dc:title /></cc:Work></rdf:RDF></metadata><defs
     id="defs11"><filter
       inkscape:label="Simple blur"
       inkscape:menu="ABCs"
       inkscape:menu-tooltip="Simple Gaussian blur, same as the blur slider in Fill and Stroke dialog"
       color-interpolation-filters="sRGB"
       id="filter3141"><feGaussianBlur
         stdDeviation="3"
         id="feGaussianBlur3143" /></filter></defs><sodipodi:namedview
     pagecolor="#ffffff"
     bordercolor="#666666"
     borderopacity="1"
     objecttolerance="10"
     gridtolerance="10"
     guidetolerance="10"
     inkscape:pageopacity="0"
     inkscape:pageshadow="2"
     inkscape:window-width="1366"
     inkscape:window-height="744"
     id="namedview9"
     showgrid="false"
     fit-margin-top="0"
     fit-margin-left="0"
     fit-margin-right="0"
     fit-margin-bottom="0"
     inkscape:zoom="5.1271753"
     inkscape:cx="46.574885"
     inkscape:cy="-2.6407998"
     inkscape:window-x="0"
     inkscape:window-y="24"
     inkscape:window-maximized="1"
     inkscape:current-layer="Capa_1" /><path
     inkscape:connector-curvature="0"
     d="m 40.096301,57.90266 c 0.04,0 0.08,0 0.18,-0.02 0.91,-0.03 1.77,-0.23 2.53,-0.6 1.25,-0.6 2.17,-1.61 2.73,-2.72 0.57,-1.11 0.82,-2.32 0.82,-3.53 0,-1.14 -0.24,-2.28 -0.72,-3.34 0.42,-0.1 0.83,-0.24 1.2,-0.43 1.27,-0.61 2.2,-1.63 2.78,-2.75 0.58,-1.12 0.85,-2.36 0.85,-3.58 0,-1.11 -0.24,-2.23 -0.71,-3.27 0.38,-0.1 0.76,-0.23 1.1,-0.4 1.27,-0.62001 2.21,-1.640011 2.8,-2.760011 0.59,-1.13 0.86,-2.370001 0.86,-3.61 0,-1.020001 -0.19,-2.04 -0.58,-3 9.01,0 20.69,0 23.08,0 1.03,0 2,-0.22 2.84,-0.63 1.27,-0.62 2.21,-1.64 2.8,-2.76 0.59,-1.129999 0.86,-2.37 0.86,-3.609999 0,-1.640001 -0.48,-3.320002 -1.56,-4.690001 -0.54,-0.68 -1.25,-1.27 -2.09,-1.68 -0.86,-0.4 -1.83,-0.62 -2.86,-0.62 -2.2,0 -19.22,0 -33,0 l 0,-7.2999986 L 23.9363,-2.3173499 -0.9936995,10.692649 l 0,1.209999 c 0,0 0,1.880001 0,4.750001 0,8.629999 0,26.250001 0,29.250001 0,1.17 0.15,2.24 0.51,3.21 0.27,0.73 0.66,1.4 1.1600001,1.96 0.75,0.85 1.69,1.44 2.68,1.86 0.9999998,0.42 2.0799998,0.7 3.2599998,0.93 v 0 c 1.65,0.33 4.1599996,0.73 7.1199996,1.16 4.43,0.64 9.85,1.33 14.670001,1.88 2.41,0.27 4.67,0.51 6.59,0.69 1.92,0.17 3.49,0.29 4.58,0.31 v 0 c 0.17,0 0.28,0.01 0.36,0.01 l 0.16,-0.01 z m -0.15,-4 c -0.1,0 -0.19,0 -0.28,0 v 0 c -5.32,-0.11 -10.69,-0.93 -15.970001,-1.59 -5.44,-0.67 -10.92,-1.3 -16.2999996,-2.37 v 0 c -1.1100001,-0.22 -2.3600001,-0.47 -3.3000001,-1.14 -0.9299997,-0.68 -1.0899997,-1.82 -1.0899997,-2.9 0,-0.86 0,-1.71 0,-2.57 0,-3.25 0,-6.5 0,-9.740001 0,-6.73 0,-13.45 0,-20.18 0,-0.09999 0,-0.2 0,-0.3 L 24.076301,2.1226601 l 15.93,7.0800003 0,4.6999986 c -5.33,0 -10.67,0 -16,0 l 0,4 c 9.21,0 18.43,0 27.64,0 6.25,0 12.5,0 18.75,0 1.86,0 3.71,0 5.57,0 0.79,0 1.68,-0.09 2.37,0.37 2.07,1.38 1.38,5.62 -1.33,5.63 -11.33,0 -22.67,0 -34,0 l 0,4 c 1.54,0 3.08,0 4.61,0 1.18,0 2.12,0.33 2.6,1.5 0.45,1.09 0.4,2.49 -0.25,3.48 -0.71,1.1 -1.88,1.02 -3.04,1.02 -0.99,0 -1.99,0 -2.98,0 -1.09,0 -2.17,0 -3.26,0 l 0,4.000001 c 0.52,0 1.05,0 1.58,0 1.06,0 2.39,-0.24 3.25,0.53 1.47,1.33 1.34,4.91 -0.89,5.4 -1.07,0.24 -2.32,0.07 -3.4,0.07 -0.87,0 -1.73,0 -2.6,0 l 0,4 c 1.34,0 2.6,-0.12 3.31,1.29 0.87,1.72 0.44,4.7 -1.93,4.71 m -0.12,0.01"
     id="path3"
     style="fill:#ff0000;filter:url(#filter3141)"
     transform="matrix(1,0,0,0.99991893,0,0.00527837)" /><path
     inkscape:connector-curvature="0"
     d="m 40.09585,57.901762 c 0.04,0 0.08,0 0.180001,-0.02001 0.91,-0.03 1.769997,-0.229979 2.529996,-0.59995 1.25,-0.599948 2.170001,-1.609862 2.730001,-2.719765 0.57,-1.109906 0.819998,-2.319803 0.819998,-3.5297 0,-1.139902 -0.239999,-2.279807 -0.720001,-3.339714 0.42,-0.09998 0.830002,-0.23998 1.200003,-0.429963 1.269999,-0.609948 2.199999,-1.629861 2.78,-2.749767 0.58,-1.119901 0.849999,-2.359797 0.849999,-3.579692 0,-1.109906 -0.239999,-2.229811 -0.709999,-3.269721 0.379998,-0.09998 0.76,-0.229981 1.099999,-0.399966 1.27,-0.619957 2.21,-1.639872 2.8,-2.759774 0.59,-1.129906 0.86,-2.369802 0.86,-3.609693 0,-1.019914 -0.190002,-2.039825 -0.579999,-2.999745 9.009997,0 20.689996,0 23.079999,0 1.029999,0 2,-0.219979 2.839997,-0.629943 1.270002,-0.619948 2.210003,-1.639862 2.800001,-2.759766 0.590001,-1.129894 0.86,-2.369788 0.86,-3.609677 10e-7,-1.639863 -0.479997,-3.31972 -1.559997,-4.689603 -0.54,-0.679941 -1.25,-1.26989 -2.090001,-1.679854 -0.86,-0.399967 -1.830002,-0.619948 -2.860002,-0.619948 -2.199999,0 -19.219997,0 -32.999998,0 l 0,-7.2993758 L 23.935851,-2.3131 -0.9941495,10.695788 l 0,1.209895 c 0,0 0,1.87984 0,4.749595 0,8.629261 0,26.247758 0,29.247499 0,1.169903 0.15,2.239809 0.51,3.209728 0.27,0.729937 0.66,1.39988 1.159999,1.959832 0.750001,0.849926 1.690001,1.439876 2.680001,1.859841 0.999999,0.419964 2.079999,0.699938 3.259999,0.929919 v 0 c 1.65,0.329974 4.1599985,0.729937 7.1199985,1.159902 4.43,0.639945 9.850002,1.329887 14.670001,1.879838 2.410003,0.269977 4.670001,0.509956 6.590002,0.689941 1.919997,0.169986 3.489999,0.289975 4.579998,0.309973 v 0 c 0.17,0 0.280002,0.01 0.359999,0.01 l 0.160002,-0.01 z m -0.149998,-3.999658 c -0.09999,0 -0.189999,0 -0.280001,0 v 0 C 34.345849,53.792112 28.97585,52.972184 23.695852,52.312241 18.255847,51.642297 12.775851,51.012352 7.3958495,49.942441 v 0 c -1.11,-0.219981 -2.36,-0.46996 -3.3,-1.1399 -0.929999,-0.679944 -1.089999,-1.819845 -1.089999,-2.899752 0,-0.859928 0,-1.709853 0,-2.56978 0,-3.249724 0,-6.499447 0,-9.73917 0,-6.729426 0,-13.44885 0,-20.178273 0,-0.09998 0,-0.199983 0,-0.299975 L 24.075851,2.1265306 l 15.93,7.0793949 0,4.6995985 c -5.329998,0 -10.67,0 -16,0 l 0,3.999655 c 9.209998,0 18.429996,0 27.639997,0 6.249999,0 12.5,0 18.75,0 1.859999,0 3.71,0 5.569999,0 0.79,0 1.680001,-0.08999 2.369999,0.369968 2.070001,1.379883 1.380003,5.61952 -1.330001,5.62952 -11.329996,0 -22.669996,0 -33.999997,0 l 0,3.999658 c 1.539999,0 3.079998,0 4.61,0 1.18,0 2.12,0.329974 2.599999,1.499873 0.45,1.089905 0.400001,2.489785 -0.25,3.479701 -0.71,1.099905 -1.879999,1.019915 -3.04,1.019915 -0.990001,0 -1.99,0 -2.979999,0 -1.090001,0 -2.170001,0 -3.259998,0 l 0,3.999658 c 0.520001,0 1.049995,0 1.579997,0 1.06,0 2.389998,-0.239978 3.249998,0.529953 1.47,1.329887 1.340002,4.909581 -0.889998,5.399538 -1.070001,0.23998 -2.320001,0.06999 -3.399997,0.06999 -0.870002,0 -1.730002,0 -2.600001,0 l 0,3.999659 c 1.34,0 2.600001,-0.119991 3.309997,1.289891 0.870001,1.719853 0.440002,4.699597 -1.929995,4.709596 m -0.120001,0.01"
     id="path3-9" /></svg>