<?xml version="1.0" encoding="UTF-8" standalone="no"?>
<svg
   xmlns:dc="http://purl.org/dc/elements/1.1/"
   xmlns:cc="http://creativecommons.org/ns#"
   xmlns:rdf="http://www.w3.org/1999/02/22-rdf-syntax-ns#"
   xmlns:svg="http://www.w3.org/2000/svg"
   xmlns="http://www.w3.org/2000/svg"
   xmlns:sodipodi="http://sodipodi.sourceforge.net/DTD/sodipodi-0.dtd"
   xmlns:inkscape="http://www.inkscape.org/namespaces/inkscape"
   version="1.1"
   id="Capa_1"
   x="0px"
   y="0px"
   width="78"
   height="56"
   viewBox="5 -10 78 75.6"
   xml:space="preserve"
   inkscape:version="0.48.5 r10040"
   sodipodi:docname="points-2-high.svg"><metadata
     id="metadata13"><rdf:RDF><cc:Work
         rdf:about=""><dc:format>image/svg+xml</dc:format><dc:type
           rdf:resource="http://purl.org/dc/dcmitype/StillImage" /></cc:Work></rdf:RDF></metadata><defs
     id="defs11"><filter
       inkscape:label="Simple blur"
       inkscape:menu="ABCs"
       inkscape:menu-tooltip="Simple Gaussian blur, same as the blur slider in Fill and Stroke dialog"
       color-interpolation-filters="sRGB"
       id="filter3057"><feGaussianBlur
         stdDeviation="3"
         id="feGaussianBlur3059" /></filter></defs><sodipodi:namedview
     pagecolor="#ffffff"
     bordercolor="#666666"
     borderopacity="1"
     objecttolerance="10"
     gridtolerance="10"
     guidetolerance="10"
     inkscape:pageopacity="0"
     inkscape:pageshadow="2"
     inkscape:window-width="1366"
     inkscape:window-height="744"
     id="namedview9"
     showgrid="false"
     fit-margin-top="0"
     fit-margin-left="0"
     fit-margin-right="0"
     fit-margin-bottom="0"
     inkscape:zoom="7.4564381"
     inkscape:cx="60.593584"
     inkscape:cy="29.671093"
     inkscape:window-x="0"
     inkscape:window-y="24"
     inkscape:window-maximized="1"
     inkscape:current-layer="Capa_1" /><path
     inkscape:connector-curvature="0"
     d="m 40.097963,57.908253 c 2.23,-0.189997 4.159999,-1.059992 5.3,-3.079978 1.219999,-2.149986 1.239999,-4.879968 0.239999,-7.119953 4.230001,-1.049993 5.760001,-6.04996 4.210001,-9.799934 9.05,0 18.099999,0 27.149999,0 2.75,0 6.5,0.569995 8.92,-0.939995 4.730001,-2.96998 3.890001,-11.449924 -1.73,-12.849915 -0.42,-0.09999 -0.85,-0.169999 -1.28,-0.189998 1.82,-4.399971 -0.77,-10.029935 -5.9,-10.019934 -2.179999,0 -4.37,0 -6.549999,0 -8.820001,0 -17.630001,0 -26.45,0 l 0,-7.2999524 L 23.937962,-2.3113477 -0.99203722,10.698567 c 0,7.699949 0,15.399897 0,23.089846 0,3.529978 0,7.049954 0,10.579931 0,1.599989 -0.06,3.219979 0.51000007,4.749969 1.02999996,2.779982 3.69999995,3.989973 6.39999995,4.599969 0.23,0.05 0.46,0.09999 0.69,0.149999 5.2700002,1.039993 10.6400002,1.669989 15.9700002,2.339985 5.62,0.699995 11.33,1.569989 16.99,1.699987 l 0,0 c 0.19,0 0.36,0.01 0.53,0 z m -0.430001,-3.999973 0,0 c -5.32,-0.109997 -10.689999,-0.929992 -15.969999,-1.589989 -5.44,-0.669996 -10.92,-1.299991 -16.3000002,-2.369984 v 0 c -1.11,-0.219998 -2.36,-0.469997 -3.3,-1.139992 -0.93,-0.679996 -1.09,-1.819989 -1.09,-2.899982 0,-0.859994 0,-1.709988 0,-2.569982 0,-3.24998 0,-6.499957 0,-9.739936 0,-6.729956 0,-13.44991 0,-20.179866 0,-0.09999 0,-0.199998 0,-0.299998 L 24.077963,2.1286228 l 15.93,7.0799536 0,4.6999696 c -5.33,0 -10.670001,0 -16.000001,0 l 0,3.999973 c 9.21,0 18.430001,0 27.64,0 6.250001,0 12.500001,0 18.75,0 1.86,0 3.71,0 5.57,0 0.79,0 1.68,-0.09001 2.37,0.369998 2.07,1.379991 1.38,5.619963 -1.33,5.629963 -11.329999,0 -22.669999,0 -34,0 l 0,3.999973 c 10.590001,0 21.190001,0 31.78,0 0.74,0 1.48,0 2.22,0 1.3,0 2.6,0 3.9,0 0.85,0 1.91,-0.149999 2.69,0.23 2.19,1.069992 1.83,5.479962 -0.76,5.749961 -0.82,0.09001 -1.68,0.02001 -2.5,0.02001 -7.149999,0 -14.31,0 -21.459999,0 -6.07,0 -12.13,0 -18.200001,0 l 0,3.999974 c 1.360001,0 3.450001,-0.429997 4.600001,0.359996 1.67,1.139994 1.65,4.77997 -0.42,5.499964 -1.07,0.369998 -2.540001,0.130004 -3.640001,0.130004 -0.869999,0 -1.729999,0 -2.6,0 l 0,3.999974 c 1.340001,0 2.6,-0.120001 3.31,1.289991 0.870001,1.719988 0.44,4.699969 -1.929999,4.709969 m -0.109998,0.01999"
     id="path3"
     style="fill:#ff0000;filter:url(#filter3057)" /><path
     inkscape:connector-curvature="0"
     d="m 40.097962,57.907306 c 2.230001,-0.190001 4.16,-1.060008 5.3,-3.080021 1.219999,-2.150015 1.24,-4.880033 0.239999,-7.120047 4.23,-1.050008 5.760002,-6.050042 4.210001,-9.800066 9.05,0 18.099995,0 27.149996,0 2.75,0 6.5,0.570004 8.919999,-0.940007 4.73001,-2.97002 3.890001,-11.450076 -1.729999,-12.850086 -0.42,-0.1 -0.850001,-0.170001 -1.28,-0.190002 1.82,-4.400029 -0.770001,-10.030068 -5.900001,-10.020067 -2.179989,0 -4.37,0 -6.549989,0 -8.820006,0 -17.630007,0 -26.450006,0 l 0,-7.3000499 -20.07,-8.9200601 -24.92999853,13.010088 c 0,7.700053 0,15.400104 0,23.090154 0,3.530025 0,7.050049 0,10.580073 0,1.60001 -0.06,3.220021 0.51,4.750031 1.0300001,2.78002 3.70000003,3.990028 6.39999993,4.600032 0.23,0.05 0.46,0.09999 0.69,0.150001 5.2700006,1.040006 10.6399996,1.670012 15.9699986,2.340015 5.62,0.700006 11.330001,1.570011 16.990001,1.700012 l 0,0 c 0.189999,0 0.359999,0.01 0.529999,0 z m -0.43,-4.000027 0,0 C 34.347961,53.79728 28.977962,52.977273 23.697963,52.317269 18.257962,51.647261 12.777964,51.01726 7.3979634,49.947252 v 0 c -1.11,-0.220001 -2.36,-0.470003 -3.3,-1.140007 -0.93,-0.680005 -1.09,-1.820013 -1.09,-2.90002 0,-0.860006 0,-1.710011 0,-2.570016 0,-3.250023 0,-6.500045 0,-9.740067 0,-6.730046 0,-13.450091 0,-20.180136 0,-0.09999 0,-0.200001 0,-0.300002 L 24.077963,2.1269296 l 15.93,7.0800481 0,4.7000323 c -5.330001,0 -10.670001,0 -16.000001,0 l 0,4.000028 c 9.209999,0 18.430001,0 27.64,0 6.25,0 12.500001,0 18.749996,0 1.86,0 3.71,0 5.57,0 0.79,0 1.679999,-0.09 2.369999,0.370002 2.070001,1.380007 1.380001,5.620038 -1.33,5.630037 -11.329999,0 -22.669995,0 -33.999995,0 l 0,4.000027 c 10.59,0 21.190001,0 31.779996,0 0.74,0 1.48,0 2.219999,0 1.3,0 2.6,0 3.9,0 0.850001,0 1.910001,-0.150001 2.690001,0.230002 2.19,1.070007 1.829999,5.480037 -0.76,5.750039 -0.820001,0.09 -1.680001,0.02001 -2.5,0.02001 -7.15,0 -14.31,0 -21.459996,0 -6.069999,0 -12.13,0 -18.200001,0 l 0,4.000027 c 1.36,0 3.450001,-0.430005 4.6,0.360001 1.670001,1.140008 1.650001,4.780032 -0.419999,5.500037 -1.069999,0.370003 -2.54,0.130006 -3.640001,0.130006 -0.869999,0 -1.729999,0 -2.6,0 l 0,4.000027 c 1.340001,0 2.6,-0.120003 3.310001,1.290007 0.87,1.72001 0.44,4.700033 -1.93,4.710032 m -0.109998,0.01999"
     id="path3-8" /></svg>